# xmcd CD database file
#
# Track frame offsets:
#	150
#	10501
#	24923
#	40348
#	50955
#	66348
#	87902
#	106701
#	134370
#	147280
#	166773
#	195787
#	208897
#
# Disc length: 2921 seconds
#
# Revision: 0
# Processed by: cddbd v1.5.2PL0 Copyright (c) Steve Scherf et al.
# Submitted via: CDex 1.70beta2
#
DISCID=a90b670d
DTITLE=Les p'tits loups du jazz - Olivier Caillard - La compilation
DYEAR=2004
DGENRE=Jazz
TTITLE0=Les p'tits loups du jazz (intro)
TTITLE1=Les dents qui swinguent
TTITLE2=La fourmi
TTITLE3=Le chanteur de blues
TTITLE4=L'oiseau du placard
TTITLE5=Les hiboux
TTITLE6=Biguine coquillage
TTITLE7=La ferme de Bercagny
TTITLE8=Les menteurs
TTITLE9=Un petit poisson
TTITLE10=La salsa des p'tits loups
TTITLE11=P'tits korrigans
TTITLE12=Les p'tits loups du jazz (fin)
EXTD=YEAR: 2004
EXTT0=
EXTT1=
EXTT2=
EXTT3=
EXTT4=
EXTT5=
EXTT6=
EXTT7=
EXTT8=
EXTT9=
EXTT10=
EXTT11=
EXTT12=
PLAYORDER=
